#!OML:ASF E:\emotionWalksFemale\Project 1\Capture day 1\Session 1\Female1.ASF
:FULLY-SPECIFIED
:DEGREES
2532
root 6.49009 15.3472 39.7739 362.557 -144.477 -358.476
lowerback 5.86144 -0.939144 0.238362
upperback -4.52065 -1.28005 0.463224
thorax -8.03472 -0.657172 0.521052
lowerneck 1.18468 -10.2404 -12.3919
upperneck 2.18232 -14.5032 14.6415
head 2.44091 -7.32261 5.92402
rclavicle -2.41679e-014 1.4064e-014
rhumerus -42.3276 -10.6492 -43.015
rradius 41.45
rwrist -3.74547
rhand -6.93751 -52.5081
rfingers 7.12502
rthumb 18.9309 -81.6068
lclavicle -2.41679e-014 1.4064e-014
lhumerus -47.6271 18.3618 30.4576
lradius 38.417
lwrist 2.20358
lhand -12.4898 -31.5214
lfingers 7.12502
lthumb 13.5849 -1.98459
rfemur -5.14334 11.969 29.5722
rtibia 27.5785
rfoot -14.9024 -8.68095
rtoes 14.9293
lfemur -18.2845 -19.7179 -14.8743
ltibia 36.6569
lfoot -24.7917 -9.01957
ltoes -36.7852
2533
root 6.4455 15.3512 39.7923 362.467 -146.392 -358.414
lowerback 5.99439 -0.849691 0.291164
upperback -4.38356 -1.14664 0.493854
thorax -7.9658 -0.591519 0.50695
lowerneck 1.1344 -10.0457 -11.928
upperneck 2.05186 -14.2073 14.4435
head 2.32238 -7.17479 5.81821
rclavicle -6.35925e-014 -1.02871e-014
rhumerus -41.7152 -10.9225 -43.937
rradius 41.8723
rwrist -4.30402
rhand -7.59308 -53.4256
rfingers 7.12502
rthumb 18.3003 -82.5847
lclavicle -6.35925e-014 -1.02871e-014
lhumerus -47.5473 18.75 29.7274
lradius 38.4881
lwrist 2.44886
lhand -12.8039 -31.6468
lfingers 7.12502
lthumb 13.2822 -2.09006
rfemur -5.35426 11.8097 29.4606
rtibia 27.9238
rfoot -14.7504 -8.39768
rtoes 12.2817
lfemur -18.0092 -19.4081 -15.0892
ltibia 36.2694
lfoot -23.6427 -9.60412
ltoes -36.882
2534
root 6.39914 15.3577 39.8112 362.364 -148.283 -358.399
lowerback 6.2232 -0.789214 0.341886
upperback -4.26807 -1.05069 0.543092
thorax -7.97557 -0.543365 0.52027
lowerneck 0.857646 -9.79435 -11.8281
upperneck 2.31941 -13.8709 14.4177
head 2.3923 -6.99616 5.7984
rclavicle -3.73669e-014 2.98177e-016
rhumerus -41.0869 -11.0677 -44.8973
rradius 42.3495
rwrist -4.56457
rhand -9.70257 -51.8149
rfingers 7.12502
rthumb 16.27 -81.1523
lclavicle -3.73669e-014 2.98177e-016
lhumerus -47.5929 19.0052 29.1744
lradius 38.6327
lwrist 2.96211
lhand -13.6723 -31.0713
lfingers 7.12502
lthumb 12.4451 -1.46182
rfemur -5.4539 11.7543 29.3117
rtibia 28.259
rfoot -14.7273 -8.39649
rtoes 11.2183
lfemur -17.6109 -19.1409 -15.4151
ltibia 36.0016
lfoot -22.5312 -9.56476
ltoes -31.1758
2535
root 6.35333 15.3653 39.8276 362.329 -150.166 -358.386
lowerback 6.42778 -0.712597 0.379081
upperback -4.20637 -0.935761 0.607469
thorax -8.02874 -0.485822 0.554653
lowerneck 0.456323 -9.59272 -11.7015
upperneck 2.82673 -13.5991 14.187
head 2.54547 -6.84145 5.69594
rclavicle 8.38933e-015 6.08778e-016
rhumerus -40.445 -11.1939 -45.7511
rradius 42.4728
rwrist -4.51155
rhand -8.63564 -53.2681
rfingers 7.12502
rthumb 17.2971 -82.5184
lclavicle 8.38933e-015 6.08778e-016
lhumerus -47.6852 19.08 28.8032
lradius 38.8169
lwrist 3.41075
lhand -14.7485 -30.7317
lfingers 7.12502
lthumb 11.4073 -1.06197
rfemur -5.55971 11.7536 29.1619
rtibia 28.5587
rfoot -14.675 -8.34419
rtoes 10.7974
lfemur -17.2181 -18.5772 -15.7734
ltibia 35.8869
lfoot -21.9264 -8.57511
ltoes -28.9173
2536
root 6.30844 15.3687 39.8476 362.305 -151.985 -358.236
lowerback 6.50866 -0.664305 0.444231
upperback -4.11816 -0.852355 0.748778
thorax -7.98031 -0.443571 0.655832
lowerneck 0.105027 -9.35875 -11.4408
upperneck 3.2 -13.2608 13.8278
head 2.62591 -6.65617 5.54572
rclavicle -9.06625e-014 -1.13307e-014
rhumerus -39.4627 -11.2436 -46.7442
rradius 42.2225
rwrist -4.61894
rhand -8.74808 -53.7873
rfingers 7.12502
rthumb 17.1889 -83.047
lclavicle -9.06625e-014 -1.13307e-014
lhumerus -47.8283 19.2399 28.5198
lradius 39.0153
lwrist 3.67214
lhand -15.7752 -30.8101
lfingers 7.12502
lthumb 10.4171 -1.08815
rfemur -5.80907 11.5862 29.1232
rtibia 28.8102
rfoot -14.7276 -7.93402
rtoes 12.5097
lfemur -16.8697 -17.8125 -15.9709
ltibia 35.8972
lfoot -21.8033 -6.05699
ltoes -33.4647
